<!DOCTYPE svg PUBLIC "-//W3C//DTD SVG 20010904//EN" "http://www.w3.org/TR/2001/REC-SVG-20010904/DTD/svg10.dtd">
<svg version="1.0" xmlns="http://www.w3.org/2000/svg" width="172px" height="172px" viewBox="0 0 1720 1720" preserveAspectRatio="xMidYMid meet">
<g id="layer1" fill="#18a7d0" stroke="none">
 <path d="M655 1705 c-301 -55 -582 -336 -640 -642 -29 -151 -15 -402 29 -523 76 -206 293 -423 496 -495 168 -60 478 -60 640 -1 170 63 350 222 448 396 66 118 92 233 92 420 0 211 -33 333 -130 478 -130 194 -321 328 -527 367 -95 18 -309 18 -408 0z m45 -195 c164 -51 339 -69 445 -47 l70 16 50 -34 c28 -19 70 -54 93 -78 l44 -45 -41 11 c-36 10 -44 9 -68 -9 -70 -51 -77 -127 -27 -279 33 -99 36 -165 11 -193 -11 -11 -40 -28 -67 -38 -115 -41 -200 -139 -200 -228 0 -53 11 -77 57 -128 l25 -26 -34 -7 c-59 -13 -100 -64 -113 -142 -4 -25 -21 -61 -42 -88 -35 -46 -35 -46 -90 -43 l-56 3 -21 95 c-12 52 -28 106 -35 120 -7 14 -45 55 -84 92 l-72 68 75 0 c41 0 91 5 110 10 57 16 142 72 176 117 60 78 53 156 -20 246 -84 104 -80 87 -80 309 l-1 200 -33 29 c-18 16 -42 29 -54 29 -78 0 -219 -132 -311 -291 -21 -35 -42 -54 -86 -78 -112 -59 -141 -121 -122 -260 6 -47 10 -86 8 -87 -1 -1 -14 0 -30 3 l-27 5 0 90 c0 119 22 213 77 328 38 79 59 108 132 180 67 68 104 96 170 128 46 23 88 42 95 42 6 0 40 -9 76 -20z m-3 -337 c-6 -203 -5 -205 73 -298 68 -80 77 -106 53 -147 -31 -53 -98 -80 -216 -89 -56 -4 -108 -8 -115 -8 -28 -2 -62 -49 -62 -88 0 -49 27 -86 107 -153 64 -53 72 -67 97 -182 l6 -28 -57 26 c-102 45 -146 75 -229 159 -67 67 -91 100 -128 176 l-46 94 54 5 c34 3 62 12 76 25 24 22 24 45 0 188 -13 73 -13 79 6 105 12 15 43 39 71 55 57 30 81 57 153 167 51 80 132 170 151 170 9 0 10 -46 6 -177z m682 33 c36 -19 102 -91 148 -163 36 -56 37 -62 41 -160 5 -132 -15 -225 -76 -346 -37 -75 -62 -108 -132 -178 -72 -73 -101 -94 -180 -132 -52 -25 -110 -48 -128 -52 l-34 -7 15 29 c8 15 17 43 21 62 9 51 22 61 79 61 63 0 97 27 97 77 0 25 -12 47 -55 98 -59 69 -66 95 -38 135 28 40 54 58 124 85 42 16 79 40 105 66 l39 40 -1 82 c0 63 -8 105 -32 181 -30 94 -39 136 -27 136 4 0 18 -6 34 -14z"/>
 </g>

</svg>