<!DOCTYPE svg PUBLIC "-//W3C//DTD SVG 20010904//EN" "http://www.w3.org/TR/2001/REC-SVG-20010904/DTD/svg10.dtd">
<svg version="1.0" xmlns="http://www.w3.org/2000/svg" width="160px" height="172px" viewBox="0 0 1600 1720" preserveAspectRatio="xMidYMid meet">
<g id="layer1" fill="#18a7d0" stroke="none">
 <path d="M104 1712 c-32 -21 -35 -52 -34 -499 1 -418 0 -452 -19 -513 -55 -182 -64 -265 -34 -293 17 -14 1087 -346 1252 -388 93 -23 154 -24 175 -3 9 8 16 17 16 19 0 2 20 69 45 148 51 166 55 204 23 234 -15 14 -185 70 -496 164 l-473 144 504 5 c407 4 507 8 520 19 15 12 17 58 17 480 0 350 -3 470 -12 479 -9 9 -187 12 -743 12 -401 0 -735 -4 -741 -8z m1346 -482 l0 -340 -605 0 -605 0 0 340 0 340 605 0 605 0 0 -340z m-1215 -646 c10 -41 15 -78 12 -81 -7 -7 -77 16 -77 26 0 11 41 131 45 131 2 0 11 -34 20 -76z m207 6 c66 -20 68 -22 78 -63 6 -23 15 -57 20 -76 5 -19 8 -37 6 -39 -7 -6 -150 39 -162 51 -6 7 -17 39 -24 72 -7 33 -15 66 -18 74 -3 9 1 12 14 7 10 -3 49 -15 86 -26z m294 -89 l69 -20 17 -77 c10 -43 16 -79 15 -81 -2 -1 -39 8 -83 21 l-79 23 -17 59 c-21 75 -23 108 -4 101 7 -3 44 -15 82 -26z m295 -91 l65 -20 18 -75 c10 -42 16 -78 14 -80 -2 -3 -40 7 -84 20 l-80 25 -17 72 c-21 90 -21 91 1 84 9 -3 47 -14 83 -26z m265 -81 c38 -12 70 -22 72 -24 1 -1 -7 -32 -18 -69 -17 -53 -25 -66 -38 -62 -9 2 -26 7 -38 10 -16 5 -23 20 -34 74 -7 37 -15 73 -18 80 -5 16 -6 16 74 -9z"/>
 <path d="M413 1410 c-31 -13 -40 -55 -18 -80 17 -19 34 -20 450 -20 416 0 433 1 450 20 23 26 13 68 -21 80 -32 13 -831 12 -861 0z"/>
 <path d="M397 1142 c-22 -24 -21 -55 1 -75 17 -15 62 -17 449 -17 404 0 431 1 446 18 22 24 21 55 -1 75 -17 15 -62 17 -449 17 -404 0 -431 -1 -446 -18z"/>
 </g>

</svg>