<!DOCTYPE svg PUBLIC "-//W3C//DTD SVG 20010904//EN" "http://www.w3.org/TR/2001/REC-SVG-20010904/DTD/svg10.dtd">
<svg version="1.0" xmlns="http://www.w3.org/2000/svg" width="172px" height="133px" viewBox="0 0 1720 1330" preserveAspectRatio="xMidYMid meet">
<g id="layer1" fill="#18a7d0" stroke="none">
 <path d="M152 1317 c-48 -15 -117 -88 -136 -144 -12 -34 -16 -84 -16 -184 0 -403 90 -715 248 -860 73 -67 132 -99 205 -114 75 -15 781 -13 839 3 87 23 199 112 259 205 42 65 87 174 119 288 46 167 67 566 34 662 -21 61 -86 129 -140 145 -57 17 -161 15 -216 -4 -55 -18 -134 -97 -171 -170 -44 -87 -101 -149 -164 -180 -51 -26 -69 -29 -153 -29 -84 0 -102 3 -152 28 -66 32 -112 81 -159 170 -46 86 -119 162 -177 181 -52 18 -169 20 -220 3z m164 -153 c25 -12 49 -42 94 -115 79 -128 143 -192 238 -237 66 -32 86 -36 176 -40 57 -2 125 1 155 7 133 28 237 114 331 270 59 100 82 121 141 128 48 7 85 -15 105 -62 29 -71 11 -341 -36 -525 -63 -247 -127 -348 -258 -408 -60 -27 -43 -26 -402 -26 -362 0 -342 -1 -406 28 -126 58 -187 151 -248 385 -54 205 -74 481 -38 551 29 58 84 74 148 44z"/>
 <path d="M497 712 c-13 -14 -17 -38 -17 -90 l0 -71 -76 -3 c-70 -3 -79 -5 -97 -30 -19 -25 -19 -28 -3 -52 15 -24 22 -26 96 -26 l80 0 0 -80 c0 -73 2 -81 24 -95 19 -13 29 -14 45 -5 32 16 41 43 41 114 l0 66 73 0 c59 0 77 4 90 18 23 25 21 45 -6 70 -19 18 -35 22 -90 22 l-67 0 0 64 c0 49 -5 69 -21 90 -24 30 -49 33 -72 8z"/>
 <path d="M727 712 c-20 -22 -22 -63 -5 -80 17 -17 259 -17 276 0 20 20 14 65 -10 82 -17 12 -49 16 -134 16 -95 0 -113 -3 -127 -18z"/>
 <path d="M1148 660 c-25 -25 -30 -37 -25 -63 5 -32 4 -33 -30 -29 -75 9 -116 -91 -57 -137 39 -31 77 -27 109 11 20 24 25 39 21 60 -5 27 -4 28 33 28 74 0 109 83 56 135 -33 34 -70 32 -107 -5z"/>
 <path d="M1261 546 c-18 -19 -22 -33 -19 -64 3 -35 1 -39 -14 -31 -28 15 -48 10 -79 -20 -34 -35 -37 -68 -8 -105 46 -59 146 -18 137 57 -4 34 -4 35 32 30 32 -4 40 -1 63 27 34 39 34 74 2 105 -33 33 -83 34 -114 1z"/>
 <path d="M722 348 c-15 -15 -15 -61 0 -76 17 -17 259 -17 276 0 7 7 12 24 12 38 0 14 -5 31 -12 38 -17 17 -259 17 -276 0z"/>
 </g>

</svg>