<!DOCTYPE svg PUBLIC "-//W3C//DTD SVG 20010904//EN" "http://www.w3.org/TR/2001/REC-SVG-20010904/DTD/svg10.dtd">
<svg version="1.0" xmlns="http://www.w3.org/2000/svg" width="129px" height="152px" viewBox="0 0 1290 1520" preserveAspectRatio="xMidYMid meet">
<g id="layer1" fill="#ffffff" stroke="none">
 <path d="M277 1513 c-12 -11 -8 -53 8 -77 14 -22 13 -24 -48 -73 -117 -94 -198 -223 -223 -357 -18 -92 -18 -251 0 -344 38 -198 204 -386 409 -461 25 -10 27 -15 27 -66 0 -75 20 -111 68 -124 55 -16 216 -14 257 3 43 19 55 42 55 113 l0 58 93 44 c122 60 232 166 295 288 89 172 95 448 12 614 -51 104 -140 210 -222 263 l-27 17 21 34 c12 21 17 42 13 55 -5 17 -15 20 -61 20 -30 0 -54 -3 -54 -7 0 -5 -7 -16 -14 -26 -13 -17 -17 -17 -67 -3 -70 21 -273 21 -349 1 -55 -15 -55 -15 -75 10 -17 20 -30 25 -66 25 -25 0 -49 -3 -52 -7z m514 -153 c232 -71 382 -278 382 -525 0 -211 -111 -398 -291 -488 -92 -46 -165 -60 -272 -55 -284 16 -500 249 -500 543 0 215 114 400 307 499 95 48 264 60 374 26z m-81 -1217 c0 -22 -4 -23 -70 -23 -66 0 -70 1 -70 23 0 21 4 22 70 22 66 0 70 -1 70 -22z"/>
 <path d="M528 1329 c-114 -27 -259 -141 -317 -248 -109 -205 -72 -451 93 -609 91 -87 210 -142 312 -142 52 0 82 28 67 62 -8 18 -23 24 -84 34 -147 23 -255 101 -316 230 -118 249 26 536 295 586 168 31 348 -66 425 -229 39 -84 49 -208 24 -293 -17 -56 -11 -82 18 -94 51 -19 89 74 87 214 -1 231 -151 428 -367 485 -64 16 -177 18 -237 4z"/>
 <path d="M591 874 c-12 -15 -21 -32 -21 -39 0 -7 9 -24 21 -39 40 -50 119 -25 119 39 0 64 -79 89 -119 39z"/>
 <path d="M738 855 c-9 -21 -8 -28 7 -45 16 -18 31 -20 130 -20 117 0 135 6 135 45 0 39 -18 45 -142 45 -117 0 -119 0 -130 -25z"/>
 <path d="M607 733 c-13 -12 -8 -248 5 -261 17 -17 42 -15 61 6 14 15 17 40 17 128 0 72 -4 114 -12 122 -13 13 -60 16 -71 5z"/>
 <path d="M928 547 c-30 -30 -84 -68 -123 -88 -53 -25 -71 -40 -73 -57 -4 -29 14 -52 43 -52 65 0 265 150 265 198 0 20 -29 52 -47 52 -6 0 -35 -24 -65 -53z"/>
 </g>

</svg>