<!DOCTYPE svg PUBLIC "-//W3C//DTD SVG 20010904//EN" "http://www.w3.org/TR/2001/REC-SVG-20010904/DTD/svg10.dtd">
<svg version="1.0" xmlns="http://www.w3.org/2000/svg" width="130px" height="152px" viewBox="0 0 1300 1520" preserveAspectRatio="xMidYMid meet">
<g id="layer1" fill="#ffffff" stroke="none">
 <path d="M20 1500 c-36 -36 -30 -156 36 -725 19 -165 40 -313 46 -329 19 -49 61 -66 161 -66 l87 0 0 -77 c0 -99 35 -179 104 -240 54 -47 105 -63 204 -63 97 0 151 21 207 81 61 65 84 120 92 218 l6 79 94 4 c91 3 96 4 122 33 26 30 28 42 63 335 49 408 58 508 58 628 0 158 73 142 -650 142 -597 0 -610 0 -630 -20z m1170 -105 c0 -12 -14 -15 -70 -15 -57 0 -74 -4 -90 -20 -24 -24 -24 -29 -4 -58 13 -19 24 -22 85 -22 65 0 69 -1 69 -22 0 -13 -20 -183 -45 -378 -25 -195 -45 -361 -45 -367 0 -9 -20 -13 -65 -13 -59 0 -65 2 -65 20 0 11 20 39 44 63 56 54 77 114 52 152 -9 14 -23 25 -31 25 -24 0 -55 -38 -56 -68 -1 -26 -1 -25 -9 6 -23 97 -129 95 -131 -3 0 -28 -1 -28 -9 -8 -11 28 5 80 30 93 10 6 38 10 62 10 49 0 68 13 68 46 0 33 -25 47 -84 48 -69 1 -125 -34 -155 -96 -38 -80 -23 -147 47 -210 23 -21 42 -47 42 -58 0 -19 -7 -20 -180 -20 l-180 0 0 23 c0 14 12 30 35 44 65 43 96 141 54 179 -29 27 -49 13 -77 -56 -10 -24 -11 -24 -11 9 -2 98 -121 95 -121 -3 0 -30 -3 -37 -10 -26 -17 27 -11 70 15 95 19 20 34 25 73 25 68 0 96 36 55 72 -60 52 -184 12 -228 -73 -8 -15 -15 -52 -15 -82 0 -62 26 -109 77 -142 20 -13 32 -28 33 -42 0 -22 -4 -23 -68 -23 l-68 0 -43 352 c-24 194 -46 369 -49 390 l-5 38 393 0 c352 0 395 2 412 17 24 22 23 49 -4 67 -19 14 -76 16 -415 16 -343 0 -393 2 -393 15 0 13 67 15 540 15 473 0 540 -2 540 -15z m-360 -1075 c0 -98 -33 -158 -105 -191 -53 -24 -99 -24 -153 2 -65 32 -94 82 -100 174 l-5 75 182 0 181 0 0 -60z"/>
 </g>

</svg>