<!DOCTYPE svg PUBLIC "-//W3C//DTD SVG 20010904//EN" "http://www.w3.org/TR/2001/REC-SVG-20010904/DTD/svg10.dtd">
<svg version="1.0" xmlns="http://www.w3.org/2000/svg" width="1500px" height="1600px" viewBox="0 0 15000 16000" preserveAspectRatio="xMidYMid meet">
<g id="layer1" fill="#ffffff" stroke="none">
 <path d="M1190 15975 c0 -14 6 -28 14 -31 7 -3 393 -385 857 -849 627 -627 845 -851 847 -870 2 -14 10 -29 17 -31 8 -3 1260 -1252 2782 -2775 2170 -2171 2774 -2769 2793 -2769 19 0 291 266 1240 1215 668 668 1225 1222 1238 1231 18 12 22 25 22 66 0 41 -3 51 -19 55 -11 3 -22 11 -25 19 -3 8 -16 14 -29 14 -14 0 -30 7 -37 15 -7 8 -20 15 -30 15 -10 0 -23 7 -30 15 -7 8 -23 15 -36 15 -13 0 -24 4 -24 10 0 5 -20 19 -45 31 -25 12 -45 25 -45 30 0 9 -96 59 -115 59 -7 0 -15 7 -19 15 -3 8 -16 15 -30 15 -13 0 -26 7 -30 15 -3 8 -16 15 -30 15 -13 0 -26 7 -30 15 -3 8 -16 15 -29 15 -13 0 -34 12 -48 26 -13 15 -37 33 -54 40 -16 8 -39 19 -50 26 -44 25 -51 28 -65 34 -50 21 -101 47 -106 55 -3 5 -16 9 -29 9 -12 0 -25 7 -29 15 -3 8 -14 15 -25 15 -11 0 -35 14 -53 30 -18 17 -40 30 -49 30 -9 0 -24 9 -34 20 -10 11 -26 20 -35 20 -10 0 -23 7 -30 15 -7 8 -20 15 -30 15 -10 0 -23 7 -30 15 -7 8 -20 15 -30 15 -10 0 -23 7 -30 15 -7 8 -19 15 -27 15 -8 0 -32 14 -53 30 -21 17 -45 30 -53 30 -8 0 -17 7 -21 15 -3 8 -16 15 -30 15 -13 0 -26 7 -30 15 -3 8 -15 15 -26 15 -11 0 -29 9 -40 20 -11 11 -28 20 -39 20 -10 0 -24 7 -31 15 -7 8 -20 15 -30 15 -10 0 -23 7 -30 15 -7 8 -20 15 -29 15 -10 0 -30 14 -46 30 -16 17 -36 30 -46 30 -9 0 -22 7 -29 15 -7 8 -23 15 -35 15 -13 0 -25 7 -29 15 -3 8 -16 15 -30 15 -13 0 -26 7 -30 15 -3 8 -17 15 -31 15 -14 0 -25 5 -25 11 0 5 -15 16 -32 24 -18 7 -48 25 -67 39 -19 14 -40 26 -47 26 -6 0 -17 7 -24 15 -7 8 -20 15 -30 15 -10 0 -23 7 -30 15 -7 8 -20 15 -30 15 -10 0 -23 7 -30 15 -7 8 -20 15 -30 15 -10 0 -23 7 -30 15 -7 8 -23 15 -35 15 -13 0 -25 7 -29 15 -3 8 -15 15 -26 15 -12 0 -33 13 -48 28 -28 30 -102 72 -126 72 -7 0 -19 7 -26 15 -7 8 -20 15 -30 15 -10 0 -23 7 -30 15 -7 8 -20 15 -30 15 -10 0 -23 7 -30 15 -7 8 -19 15 -27 15 -8 0 -32 14 -53 30 -21 17 -45 30 -54 30 -9 0 -16 4 -16 9 0 11 -155 91 -175 91 -7 0 -18 7 -25 15 -7 8 -20 15 -30 15 -10 0 -20 7 -24 15 -3 8 -14 15 -25 15 -11 0 -35 14 -53 30 -18 17 -40 30 -49 30 -9 0 -22 7 -29 15 -7 8 -23 15 -36 15 -13 0 -24 5 -24 11 0 5 -15 17 -32 25 -18 8 -40 18 -48 23 -8 5 -41 22 -72 37 -32 15 -65 35 -74 46 -10 10 -25 18 -34 18 -10 0 -20 7 -24 15 -3 8 -16 15 -30 15 -13 0 -26 7 -30 15 -3 8 -16 15 -30 15 -13 0 -26 7 -30 15 -3 8 -16 15 -29 15 -13 0 -32 9 -42 20 -10 11 -26 20 -35 20 -10 0 -23 7 -30 15 -7 8 -20 15 -29 15 -10 0 -30 14 -46 30 -16 17 -36 30 -46 30 -9 0 -22 7 -29 15 -7 8 -23 15 -35 15 -13 0 -25 7 -29 15 -3 8 -16 15 -30 15 -13 0 -26 7 -30 15 -3 8 -16 15 -30 15 -13 0 -26 7 -30 15 -3 8 -15 15 -27 15 -12 0 -39 16 -60 35 -22 19 -45 35 -53 35 -7 0 -19 7 -26 15 -7 8 -20 15 -30 15 -10 0 -23 7 -30 15 -7 8 -20 15 -30 15 -10 0 -23 7 -30 15 -7 8 -20 15 -30 15 -10 0 -23 7 -30 15 -7 8 -23 15 -35 15 -13 0 -25 7 -29 15 -3 8 -14 15 -25 15 -11 0 -35 14 -53 30 -36 33 -100 70 -122 70 -7 0 -19 7 -26 15 -7 8 -20 15 -30 15 -10 0 -23 7 -30 15 -7 8 -20 15 -30 15 -10 0 -23 7 -30 15 -7 8 -19 15 -27 15 -8 0 -32 14 -53 30 -21 17 -45 30 -53 30 -8 0 -17 7 -21 15 -3 8 -17 15 -31 15 -14 0 -25 4 -25 9 0 11 -94 61 -115 61 -7 0 -18 7 -25 15 -7 8 -20 15 -30 15 -10 0 -23 7 -30 15 -7 8 -20 15 -29 15 -10 0 -30 14 -46 30 -16 17 -36 30 -46 30 -9 0 -22 7 -29 15 -7 8 -23 15 -35 15 -13 0 -25 7 -29 15 -3 8 -17 15 -31 15 -14 0 -25 5 -25 10 0 6 -28 23 -62 40 -35 16 -78 41 -97 55 -19 14 -40 25 -47 25 -6 0 -14 7 -18 15 -3 8 -16 15 -30 15 -13 0 -26 7 -30 15 -3 8 -16 15 -29 15 -14 0 -30 7 -37 15 -7 8 -20 15 -30 15 -10 0 -23 7 -30 15 -7 8 -23 15 -36 15 -13 0 -24 4 -24 10 0 5 -20 19 -45 31 -25 12 -45 25 -45 30 0 9 -96 59 -115 59 -7 0 -15 7 -19 15 -3 8 -16 15 -30 15 -13 0 -26 7 -30 15 -3 8 -16 15 -30 15 -13 0 -26 7 -30 15 -3 8 -16 15 -29 15 -14 0 -30 7 -37 15 -7 8 -21 15 -32 15 -11 0 -34 16 -51 35 -17 19 -38 35 -48 35 -9 0 -22 7 -29 15 -7 8 -17 15 -23 15 -15 0 -96 40 -103 51 -3 5 -16 9 -29 9 -12 0 -25 7 -29 15 -3 8 -14 15 -25 15 -11 0 -35 14 -53 30 -18 17 -40 30 -49 30 -9 0 -24 9 -34 20 -10 11 -26 20 -35 20 -10 0 -23 7 -30 15 -7 8 -20 15 -30 15 -10 0 -23 7 -30 15 -7 8 -20 15 -30 15 -10 0 -23 7 -30 15 -7 8 -20 15 -30 15 -10 0 -23 7 -30 15 -7 8 -22 15 -34 15 -11 1 -32 14 -46 30 -13 17 -34 30 -46 30 -12 0 -24 7 -28 15 -3 8 -15 15 -26 15 -11 0 -29 9 -40 20 -11 11 -28 20 -39 20 -10 0 -24 7 -31 15 -7 8 -20 15 -30 15 -10 0 -23 7 -30 15 -7 8 -20 15 -30 15 -10 0 -23 7 -30 15 -7 8 -20 15 -29 15 -10 0 -30 14 -46 30 -16 17 -39 30 -51 30 -12 0 -24 7 -28 15 -3 8 -16 15 -30 15 -13 0 -26 7 -30 15 -3 8 -17 15 -31 15 -14 0 -25 4 -25 9 0 11 -94 61 -115 61 -7 0 -18 7 -25 15 -7 8 -20 15 -30 15 -10 0 -23 7 -30 15 -7 8 -27 15 -45 15 -18 0 -38 7 -45 15 -7 8 -20 15 -30 15 -10 0 -23 7 -30 15 -7 8 -23 15 -35 15 -13 0 -25 7 -29 15 -3 8 -16 15 -29 15 -14 0 -30 7 -37 15 -7 8 -27 15 -45 15 -19 0 -39 8 -50 20 -10 11 -25 20 -34 20 -9 0 -25 7 -35 15 -11 8 -32 15 -47 15 -14 0 -32 7 -39 15 -7 8 -27 15 -44 15 -17 0 -40 7 -50 15 -11 8 -41 15 -67 15 -29 0 -51 6 -59 15 -8 10 -30 15 -62 15 -34 0 -50 4 -54 15 -5 13 -52 15 -340 15 l-334 0 0 -25z"/>
 <path d="M257 15523 c-4 -3 -7 -16 -7 -29 0 -12 -7 -24 -15 -28 -8 -3 -15 -16 -15 -30 0 -13 -7 -26 -15 -30 -8 -3 -15 -17 -15 -31 0 -14 -9 -34 -21 -46 -15 -15 -20 -29 -16 -48 4 -20 0 -30 -14 -40 -13 -7 -18 -18 -15 -28 4 -10 -2 -22 -15 -31 -16 -11 -20 -22 -17 -51 3 -24 0 -40 -10 -47 -10 -7 -16 -29 -16 -60 -1 -34 -6 -53 -18 -62 -14 -10 -18 -28 -18 -83 0 -55 -3 -69 -15 -69 -13 0 -15 -763 -15 -6810 0 -6047 2 -6810 15 -6810 12 0 15 -14 15 -69 0 -55 4 -73 17 -83 13 -9 18 -28 19 -62 0 -31 6 -53 16 -60 10 -7 13 -23 10 -47 -3 -27 1 -40 15 -50 10 -8 19 -27 20 -42 0 -16 9 -37 18 -47 9 -10 14 -23 11 -29 -4 -6 2 -19 14 -31 11 -11 20 -31 20 -45 0 -14 7 -28 15 -31 8 -4 15 -17 15 -30 0 -12 6 -27 14 -31 8 -4 16 -19 18 -33 3 -22 8 -25 48 -28 l45 -2 3734 3734 c2054 2054 3740 3737 3747 3740 29 11 29 101 0 112 -7 3 -1693 1685 -3747 3739 l-3734 3735 -41 0 c-22 0 -44 -3 -47 -7z"/>
 <path d="M10515 9390 c-731 -732 -1333 -1330 -1337 -1330 -18 0 -30 -47 -19 -69 7 -11 15 -21 20 -21 4 0 275 -268 602 -594 438 -439 595 -602 597 -621 2 -14 11 -29 19 -32 9 -4 338 -330 732 -725 647 -650 718 -718 747 -718 17 0 37 7 44 15 7 8 20 15 30 15 10 0 23 7 30 15 7 8 20 15 30 15 10 0 23 7 30 15 7 8 18 15 25 15 21 0 115 50 115 61 0 5 11 9 25 9 14 0 28 7 31 15 4 8 15 15 25 15 11 0 22 6 25 14 3 8 13 17 22 20 9 3 24 9 32 14 8 5 24 14 35 20 11 7 27 15 35 18 8 3 22 10 30 15 8 5 22 12 30 15 8 3 22 10 30 15 8 5 22 12 30 15 8 3 22 10 30 15 8 5 30 16 48 24 17 9 32 20 32 25 0 6 7 10 15 10 9 0 18 7 21 15 4 8 17 15 30 15 14 0 27 7 30 15 4 8 17 15 30 15 14 0 27 7 30 15 4 8 16 15 29 15 12 0 28 7 35 15 7 8 20 15 30 15 10 0 23 7 30 15 7 8 18 15 26 15 7 0 29 13 47 30 19 16 41 30 49 30 8 0 23 9 33 20 10 11 29 20 42 20 13 0 26 7 29 15 4 8 17 15 30 15 14 0 27 7 30 15 4 8 17 15 30 15 14 0 27 7 30 15 4 8 16 15 28 15 12 0 32 11 43 23 11 13 42 34 69 46 27 12 56 27 64 32 8 5 30 15 48 23 17 8 32 20 32 25 0 6 10 11 23 11 13 0 28 5 34 11 13 13 47 33 81 48 12 6 22 15 22 21 0 5 11 10 25 10 14 0 28 7 31 15 4 8 14 15 23 15 9 1 32 14 51 30 19 17 40 30 47 30 8 0 29 16 49 35 19 19 43 35 52 35 10 0 29 13 42 30 14 16 34 29 45 30 12 0 41 20 65 45 24 25 51 45 60 45 8 0 51 36 94 80 44 44 87 80 95 80 9 0 24 8 32 17 9 10 59 60 112 111 57 54 94 98 91 106 -3 8 22 38 60 73 37 33 66 69 66 79 1 23 19 48 43 57 9 3 17 17 17 30 0 14 14 36 36 55 20 18 34 38 31 45 -3 8 4 19 15 26 14 9 18 19 14 36 -4 17 -1 24 15 28 18 5 21 12 17 46 -3 32 0 41 14 44 12 3 18 15 18 31 0 15 7 29 15 32 13 5 15 63 15 434 0 371 -2 429 -15 434 -10 3 -15 19 -15 47 0 32 -4 42 -20 46 -15 4 -18 11 -14 28 4 17 0 26 -14 34 -13 7 -18 17 -15 30 3 13 -2 24 -15 32 -11 7 -18 18 -15 26 3 7 -11 27 -31 45 -22 19 -36 41 -36 55 0 13 -8 27 -17 30 -24 9 -42 34 -43 57 0 10 -29 46 -65 78 -48 44 -64 65 -60 78 4 12 -2 24 -16 34 -12 8 -64 56 -114 106 -51 49 -99 90 -107 90 -8 0 -50 36 -94 80 -43 44 -86 80 -94 80 -8 0 -35 20 -60 45 -25 24 -54 45 -65 45 -11 1 -31 14 -45 30 -13 17 -32 30 -42 30 -9 0 -33 16 -52 35 -20 19 -40 35 -47 35 -6 0 -31 14 -56 30 -24 17 -48 30 -52 30 -5 0 -11 7 -15 15 -3 8 -16 15 -30 15 -13 0 -26 7 -30 15 -3 8 -16 15 -29 15 -13 0 -36 13 -52 30 -16 17 -39 30 -52 30 -13 0 -23 5 -23 11 0 5 -15 17 -32 25 -18 8 -40 18 -48 23 -8 5 -41 22 -72 37 -32 15 -65 35 -74 46 -10 10 -25 18 -34 18 -10 0 -20 7 -24 15 -3 8 -16 15 -30 15 -13 0 -26 7 -30 15 -3 8 -16 15 -30 15 -13 0 -26 7 -30 15 -3 8 -16 15 -29 15 -13 0 -32 9 -42 20 -10 11 -24 20 -31 20 -7 0 -42 20 -78 45 -37 25 -72 45 -80 45 -7 0 -19 7 -26 15 -7 8 -23 15 -35 15 -13 0 -25 7 -29 15 -3 8 -16 15 -30 15 -13 0 -26 7 -30 15 -3 8 -16 15 -30 15 -13 0 -26 7 -30 15 -3 8 -12 15 -21 15 -8 0 -15 4 -15 10 0 5 -15 16 -34 24 -18 8 -37 19 -40 25 -4 6 -15 11 -25 11 -10 0 -24 7 -31 15 -7 8 -20 15 -30 15 -10 0 -23 7 -30 15 -7 8 -20 15 -30 15 -10 0 -23 7 -30 15 -7 8 -20 15 -30 15 -10 0 -23 7 -30 15 -7 8 -22 15 -34 15 -11 1 -32 14 -46 30 -14 17 -34 30 -47 30 -13 0 -23 4 -23 9 0 11 -94 61 -115 61 -7 0 -18 7 -25 15 -7 8 -20 15 -30 15 -10 0 -23 7 -30 15 -7 8 -20 15 -30 15 -10 0 -23 7 -30 15 -7 8 -27 15 -44 15 -28 0 -163 -133 -1361 -1330z"/>
 <path d="M6192 5068 c-1257 -1256 -2294 -2294 -2306 -2308 -65 -75 -745 -753 -763 -760 -13 -5 -23 -20 -25 -35 -2 -20 -243 -266 -942 -965 -516 -516 -945 -941 -952 -944 -8 -3 -14 -17 -14 -31 l0 -25 334 0 c288 0 335 2 340 15 4 11 20 15 54 15 32 0 54 5 62 15 8 9 30 15 59 15 26 0 56 7 67 15 10 8 33 15 50 15 17 0 37 7 44 15 7 8 22 15 34 15 12 0 31 7 42 15 10 8 28 15 40 15 11 0 29 9 39 20 11 12 31 20 50 20 18 0 38 7 45 15 7 8 23 15 37 15 13 0 26 7 29 15 4 8 16 15 29 15 12 0 28 7 35 15 7 8 20 15 30 15 10 0 23 7 30 15 7 8 27 15 45 15 18 0 38 7 45 15 7 8 20 15 30 15 10 0 23 7 30 15 7 8 18 15 25 15 21 0 115 50 115 61 0 5 11 9 25 9 14 0 28 7 31 15 4 8 17 15 30 15 14 0 27 7 30 15 4 8 16 15 29 15 12 0 28 7 35 15 7 8 17 15 22 15 6 0 27 13 48 30 21 16 45 30 53 30 8 0 20 7 27 15 7 8 20 15 30 15 10 0 23 7 30 15 7 8 21 15 31 15 11 0 28 9 39 20 11 11 29 20 40 20 11 0 23 7 26 15 4 8 17 15 30 15 14 0 27 7 30 15 4 8 16 15 28 15 11 0 34 14 50 30 16 17 37 30 46 30 10 0 23 7 30 15 7 8 20 15 30 15 10 0 23 7 30 15 7 8 20 15 30 15 10 0 23 7 30 15 7 8 20 15 30 15 9 0 25 9 35 20 10 11 25 20 34 20 9 0 31 13 49 30 18 16 42 30 53 30 11 0 22 7 25 15 4 8 17 15 29 15 13 0 26 4 29 9 4 5 27 19 54 31 26 12 54 26 62 31 8 5 22 12 30 15 8 3 22 10 30 15 8 5 29 15 45 23 17 7 41 25 54 40 14 14 35 26 48 26 13 0 26 7 29 15 4 8 17 15 30 15 14 0 27 7 30 15 4 8 17 15 30 15 14 0 27 7 30 15 4 8 12 15 19 15 19 0 115 50 115 59 0 5 20 18 45 30 25 12 45 26 45 31 0 6 11 10 24 10 13 0 29 7 36 15 7 8 20 15 30 15 10 0 23 7 30 15 7 8 23 15 37 15 13 0 26 7 29 15 4 8 17 15 30 15 14 0 27 7 30 15 4 8 14 15 24 15 9 0 25 9 34 19 10 11 51 35 92 55 41 20 74 41 74 46 0 6 11 10 25 10 14 0 28 7 31 15 4 8 16 15 29 15 12 0 28 7 35 15 7 8 20 15 29 15 10 0 30 14 46 30 16 17 36 30 46 30 9 0 22 7 29 15 7 8 20 15 30 15 10 0 23 7 30 15 7 8 18 15 25 15 21 0 115 50 115 61 0 5 11 9 25 9 14 0 28 7 31 15 4 8 16 15 28 15 12 0 35 13 51 30 16 16 36 30 46 30 9 0 22 7 29 15 7 8 20 15 30 15 10 0 23 7 30 15 7 8 20 15 30 15 10 0 23 7 30 15 7 8 19 15 26 15 24 0 98 42 126 72 15 15 36 28 48 28 11 0 23 7 26 15 4 8 16 15 29 15 12 0 28 7 35 15 7 8 20 15 30 15 10 0 23 7 30 15 7 8 20 15 30 15 10 0 23 7 30 15 7 8 20 15 30 15 10 0 23 7 30 15 7 8 20 15 29 15 10 0 32 16 51 35 20 20 44 35 57 35 13 0 26 7 29 15 4 8 17 15 30 15 14 0 27 7 30 15 4 8 17 15 30 15 14 0 27 7 30 15 4 8 16 15 29 15 12 0 28 7 35 15 7 8 19 15 26 15 8 0 43 20 80 45 36 25 71 45 78 45 7 0 21 9 31 20 10 11 29 20 42 20 13 0 26 7 29 15 4 8 17 15 30 15 14 0 27 7 30 15 4 8 17 15 30 15 14 0 27 7 30 15 4 8 17 15 30 15 13 0 28 8 33 18 5 10 36 31 68 46 32 15 65 32 73 37 8 5 30 15 48 23 17 8 32 20 32 25 0 6 11 11 24 11 13 0 29 7 36 15 7 8 23 15 37 15 13 0 26 7 29 15 4 8 15 15 25 15 11 0 22 7 25 15 4 8 13 15 20 15 8 0 17 7 20 15 4 8 14 15 24 15 10 0 23 7 30 15 7 8 18 15 25 15 20 0 175 80 175 91 0 5 10 9 23 9 13 0 36 13 52 30 16 17 36 30 46 30 9 0 22 7 29 15 7 8 20 15 30 15 10 0 23 7 30 15 7 8 20 15 30 15 10 0 23 7 30 15 7 8 20 15 29 16 9 0 39 13 66 29 28 16 59 33 70 38 11 6 33 22 48 36 15 14 36 26 46 26 10 0 24 7 31 15 7 8 20 15 30 15 10 0 23 7 30 15 7 8 20 15 30 15 10 0 23 7 30 15 7 8 20 15 30 15 10 0 23 7 30 15 7 8 20 15 30 15 9 0 25 9 34 19 10 11 38 29 62 40 24 12 44 26 44 31 0 6 11 10 25 10 14 0 28 7 31 15 4 8 17 15 30 15 14 0 27 7 30 15 4 8 16 15 29 15 12 0 28 7 35 15 7 8 19 15 26 15 8 0 43 20 80 45 36 25 71 45 78 45 8 0 19 7 26 15 7 8 21 15 31 15 11 0 28 9 39 20 11 11 29 20 40 20 11 0 23 7 26 15 4 8 17 15 30 15 14 0 27 7 30 15 4 8 16 15 28 15 12 0 35 13 51 30 16 17 36 30 46 30 9 0 22 7 29 15 7 8 20 15 30 15 10 0 23 7 30 15 7 8 20 15 30 15 10 0 23 7 30 15 7 8 20 15 30 15 9 0 25 9 35 20 10 11 29 20 42 20 13 0 26 7 29 15 4 8 15 15 25 15 11 0 22 7 25 15 4 8 13 15 20 15 8 0 17 7 20 15 4 8 17 15 29 15 13 0 26 4 29 9 4 5 27 19 54 31 26 12 54 26 62 31 8 5 22 12 30 15 8 3 22 10 30 15 8 5 29 15 45 23 17 7 41 25 54 40 14 14 35 26 48 26 13 0 26 7 29 15 4 8 17 15 30 15 14 0 27 7 30 15 4 8 17 15 30 15 14 0 27 7 30 15 4 8 12 15 20 15 22 0 151 71 185 102 17 15 38 28 48 28 10 0 24 7 31 15 7 8 20 15 30 15 10 0 23 7 30 15 7 8 23 15 36 15 13 0 27 6 31 13 4 8 16 16 26 20 13 5 17 18 17 56 0 40 -4 53 -22 65 -13 9 -570 563 -1238 1231 -941 940 -1221 1215 -1240 1215 -19 0 -535 -511 -2308 -2282z"/>
 </g>

</svg>